<?xml version="1.0" encoding="UTF-8" standalone="no"?>
<svg
   viewBox="0 0 512 512"
   width="512"
   height="512"
   version="1.1"
   id="svg4"
   xmlns="http://www.w3.org/2000/svg"
   xmlns:svg="http://www.w3.org/2000/svg">
  <defs
     id="defs4" />
  <g
     id="g4">
    <rect
       width="512"
       height="512"
       rx="120"
       fill="#f0f4f8"
       id="rect1"
       x="0"
       y="0" />
    <path
       d="m 176,160 v -32 c 0,-44.2 35.8,-80 80,-80 44.2,0 80,35.8 80,80 v 32"
       stroke="#3d5afe"
       stroke-width="32"
       stroke-linecap="round"
       fill="none"
       id="path1" />
    <path
       d="m 128,160 h 192 v 256 c 0,26.5 -21.5,48 -48,48 h -96 c -26.5,0 -48,-21.5 -48,-48 z"
       fill="#3d5afe"
       opacity="0.8"
       id="path2" />
    <path
       d="m 192,160 h 192 v 256 c 0,26.5 -21.5,48 -48,48 h -96 c -26.5,0 -48,-21.5 -48,-48 z"
       fill="#00e676"
       opacity="0.7"
       style="mix-blend-mode:multiply"
       id="path3" />
    <path
       d="M 368,240 240,368 176,304"
       stroke="#ffffff"
       stroke-width="40"
       stroke-linecap="round"
       stroke-linejoin="round"
       fill="none"
       id="path4" />
  </g>
</svg>
