<?xml version="1.0" encoding="UTF-8" standalone="no"?>
<svg
   viewBox="0 0 512 512"
   width="512"
   height="512"
   version="1.1"
   id="svg4"
   sodipodi:docname="logo_v1.svg"
   inkscape:version="1.4.3 (0d15f75042, 2025-12-25)"
   inkscape:export-filename="pwa-512x512.png"
   inkscape:export-xdpi="96"
   inkscape:export-ydpi="96"
   xmlns:inkscape="http://www.inkscape.org/namespaces/inkscape"
   xmlns:sodipodi="http://sodipodi.sourceforge.net/DTD/sodipodi-0.dtd"
   xmlns="http://www.w3.org/2000/svg"
   xmlns:svg="http://www.w3.org/2000/svg">
  <defs
     id="defs4" />
  <sodipodi:namedview
     id="namedview4"
     pagecolor="#505050"
     bordercolor="#eeeeee"
     borderopacity="1"
     inkscape:showpageshadow="0"
     inkscape:pageopacity="0"
     inkscape:pagecheckerboard="0"
     inkscape:deskcolor="#505050"
     showgrid="false"
     inkscape:zoom="0.9609375"
     inkscape:cx="254.95935"
     inkscape:cy="255.47967"
     inkscape:window-width="1496"
     inkscape:window-height="1390"
     inkscape:window-x="0"
     inkscape:window-y="30"
     inkscape:window-maximized="1"
     inkscape:current-layer="svg4" />
  <g
     id="g4"
     inkscape:export-filename="pwa-512x512.svg"
     inkscape:export-xdpi="96"
     inkscape:export-ydpi="96">
    <rect
       width="512"
       height="512"
       rx="120"
       fill="#f0f4f8"
       id="rect1" />
    <path
       d="M176 160V128C176 83.8 211.8 48 256 48C300.2 48 336 83.8 336 128V160"
       stroke="#3D5AFE"
       stroke-width="32"
       stroke-linecap="round"
       fill="none"
       id="path1" />
    <path
       d="M128 160H320V416C320 442.5 298.5 464 272 464H176C149.5 464 128 442.5 128 416V160Z"
       fill="#3D5AFE"
       opacity="0.8"
       id="path2" />
    <path
       d="M192 160H384V416C384 442.5 362.5 464 336 464H240C213.5 464 192 442.5 192 416V160Z"
       fill="#00E676"
       opacity="0.7"
       style="mix-blend-mode: multiply;"
       id="path3" />
    <path
       d="M368 240L240 368L176 304"
       stroke="white"
       stroke-width="40"
       stroke-linecap="round"
       stroke-linejoin="round"
       fill="none"
       id="path4" />
  </g>
  <g
     id="g4-5"
     transform="matrix(0.375,0,0,0.375,529.90244,320.11382)"
     inkscape:export-filename="pwa-192x192.svg"
     inkscape:export-xdpi="96"
     inkscape:export-ydpi="96">
    <rect
       width="512"
       height="512"
       rx="120"
       fill="#f0f4f8"
       id="rect1-3"
       x="0"
       y="0" />
    <path
       d="m 176,160 v -32 c 0,-44.2 35.8,-80 80,-80 44.2,0 80,35.8 80,80 v 32"
       stroke="#3d5afe"
       stroke-width="32"
       stroke-linecap="round"
       fill="none"
       id="path1-5" />
    <path
       d="m 128,160 h 192 v 256 c 0,26.5 -21.5,48 -48,48 h -96 c -26.5,0 -48,-21.5 -48,-48 z"
       fill="#3d5afe"
       opacity="0.8"
       id="path2-6" />
    <path
       d="m 192,160 h 192 v 256 c 0,26.5 -21.5,48 -48,48 h -96 c -26.5,0 -48,-21.5 -48,-48 z"
       fill="#00e676"
       opacity="0.7"
       style="mix-blend-mode:multiply"
       id="path3-2" />
    <path
       d="M 368,240 240,368 176,304"
       stroke="#ffffff"
       stroke-width="40"
       stroke-linecap="round"
       stroke-linejoin="round"
       fill="none"
       id="path4-9" />
  </g>
</svg>
